<?xml version="1.0" encoding="UTF-8"?>
<svg version="1.1" xmlns="http://www.w3.org/2000/svg" width="500" height="500">
<path d="M0 0 C1.03605881 -0.01582626 2.07211761 -0.03165253 3.13957214 -0.04795837 C4.28604218 -0.06007355 5.43251221 -0.07218872 6.61372375 -0.08467102 C7.81367477 -0.10087997 9.01362579 -0.11708893 10.24993896 -0.13378906 C21.32831546 -0.27404627 32.40755189 -0.3535629 43.48663616 -0.41270733 C51.67760453 -0.45727541 59.86689787 -0.53438766 68.05711716 -0.65429181 C73.81426503 -0.73573583 79.57095428 -0.77885083 85.32865363 -0.79400951 C88.76817966 -0.80417371 92.20559803 -0.83143417 95.6444912 -0.90032005 C99.48498429 -0.97639958 103.32322413 -0.97332277 107.164505 -0.96357727 C108.86902832 -1.01514984 108.86902832 -1.01514984 110.60798645 -1.06776428 C113.78012765 -1.02187543 116.22703202 -0.89264825 119.21260071 0.18754578 C121.98873448 3.21515095 123.59399004 6.44010058 125.21260071 10.18754578 C125.76947571 11.17625671 126.32635071 12.16496765 126.90010071 13.18363953 C127.33322571 13.98930359 127.76635071 14.79496765 128.21260071 15.62504578 C129.74827997 18.47413493 131.28612842 21.32042086 132.85322571 24.15238953 C133.38431946 25.11274109 133.91541321 26.07309265 134.46260071 27.06254578 C134.94213196 27.92621765 135.42166321 28.78988953 135.91572571 29.67973328 C137.18581002 32.13573969 138.23116499 34.60433291 139.21260071 37.18754578 C138.21260071 38.18754578 138.21260071 38.18754578 135.54392147 38.31059361 C133.74227708 38.30921092 133.74227708 38.30921092 131.90423584 38.30780029 C130.90452565 38.30908193 130.90452565 38.30908193 129.8846193 38.31038946 C127.63511437 38.31204612 125.38568283 38.30651988 123.13618469 38.30107117 C121.5301463 38.30078931 119.92410778 38.300947 118.31806946 38.30151367 C113.94429003 38.3018017 109.57053779 38.2959041 105.19676471 38.28893971 C100.63100492 38.28270708 96.06524458 38.28210245 91.4994812 38.28091431 C82.84738765 38.27780072 74.19530667 38.26958697 65.54321867 38.25956482 C55.69574248 38.24840452 45.8482657 38.24289344 36.00078475 38.23786938 C15.73804971 38.22740438 -4.524674 38.20980442 -24.78739929 38.18754578 C-24.89817406 34.12916117 -24.50148964 32.12645206 -22.28739929 28.68754578 C-21.74212585 27.82258484 -21.19685242 26.9576239 -20.63505554 26.06645203 C-20.02532898 25.11641296 -19.41560242 24.1663739 -18.78739929 23.18754578 C-17.42885925 21.00275916 -16.07483058 18.81516201 -14.72489929 16.62504578 C-14.05200867 15.53578796 -13.37911804 14.44653015 -12.68583679 13.32426453 C-10.5918243 9.86440438 -8.61425284 6.35742966 -6.69755554 2.79692078 C-4.90809496 -0.36727562 -3.55113644 0.04731061 0 0 Z " fill="#52525B" transform="translate(227.7873992919922,313.8124542236328)"/>
<path d="M0 0 C1.32 0 2.64 0 4 0 C12.45286885 14.97096995 12.45286885 14.97096995 16.375 22.0625 C16.81585938 22.85785156 17.25671875 23.65320313 17.7109375 24.47265625 C18.13632813 25.30667969 18.56171875 26.14070313 19 27 C19.62390625 28.10730469 20.2478125 29.21460938 20.890625 30.35546875 C22 34 22 34 20.7109375 37.515625 C19.95840476 38.77637482 19.17762983 40.0205363 18.375 41.25 C17.51924194 42.65737621 16.66378636 44.06493637 15.80859375 45.47265625 C15.34952637 46.20758301 14.89045898 46.94250977 14.41748047 47.69970703 C12.48208906 50.84046795 10.66028183 54.04167336 8.83203125 57.24560547 C5.29170376 63.4448974 1.67145427 69.57935413 -2.125 75.625 C-5.06067055 80.33752377 -7.69625415 85.13826713 -10.25 90.0625 C-14.95707126 99.12652128 -20.2175503 107.82067094 -25.52001953 116.54541016 C-28.24181758 121.05958989 -30.89017043 125.61744534 -33.52709961 130.18164062 C-34.27442426 131.46379135 -35.04443115 132.73298766 -35.83642578 133.98803711 C-37.08227045 136.01900914 -37.08227045 136.01900914 -37.94091797 138.46704102 C-39.31944724 141.48068712 -40.31827889 143.01298124 -43 145 C-49.27206222 146.53399853 -55.98618101 145.83939139 -62.375 145.5625 C-64.17828611 145.5173288 -65.9816802 145.47626878 -67.78515625 145.43945312 C-72.19277631 145.34052956 -76.59520473 145.18540835 -81 145 C-81.33 144.34 -81.66 143.68 -82 143 C-81.13671875 140.99609375 -81.13671875 140.99609375 -79.6875 138.4375 C-78.84638672 136.94863281 -78.84638672 136.94863281 -77.98828125 135.4296875 C-77.33214844 134.29789063 -76.67601562 133.16609375 -76 132 C-75.64470215 131.38672852 -75.2894043 130.77345703 -74.92333984 130.14160156 C-71.02645357 123.43188723 -67.07582773 116.75546836 -63.0390625 110.12890625 C-57.56921709 101.13271685 -52.30797554 92.10786121 -47.56054688 82.70556641 C-44.93149994 77.55258821 -41.95635214 72.7169356 -38.81811523 67.85864258 C-35.80005939 63.11332019 -33.00139305 58.24321005 -30.1875 53.375 C-28.96254743 51.26414424 -27.73728519 49.15346816 -26.51171875 47.04296875 C-25.61912354 45.50455322 -25.61912354 45.50455322 -24.70849609 43.93505859 C-22.73961234 40.55267499 -20.75150781 37.18205093 -18.75830078 33.81396484 C-14.69586901 26.94866009 -10.75719494 20.03841101 -7 13 C-6.36118304 11.81352953 -5.72182833 10.62734849 -5.08203125 9.44140625 C-3.38522178 6.29577284 -1.69179225 3.14833529 0 0 Z " fill="#52525B" transform="translate(215,207)"/>
<path d="M0 0 C4.31684422 1.43894807 5.29395729 4.68463388 7.3125 8.5 C9.78913333 13.05277484 12.23730468 17.54330201 15.1875 21.8125 C19.28119016 27.76797802 22.52545599 34.18539771 25.875 40.578125 C30.27252643 48.94232446 34.97515047 56.99164606 40 65 C43.07003569 69.99618789 46.03575235 75.02198862 48.8125 80.1875 C51.25873755 84.72042313 53.84328355 89.1511817 56.5 93.5625 C56.88816895 94.20703125 57.27633789 94.8515625 57.67626953 95.515625 C59.33947284 98.27006395 61.01133785 101.0184012 62.69921875 103.7578125 C65.25093366 107.92360429 67.56746841 112.09732076 69.6875 116.5 C72.82688489 122.94710141 76.57307652 128.97390284 80.39331055 135.03320312 C80.85906494 135.77763672 81.32481934 136.52207031 81.8046875 137.2890625 C82.22733887 137.95631348 82.64999023 138.62356445 83.08544922 139.31103516 C84 141 84 141 84 143 C78.4689292 143.37307465 72.94525909 143.64384723 67.40454102 143.82397461 C65.52466308 143.89906637 63.64565184 144.00119783 61.76879883 144.1315918 C46.58320139 145.15955233 46.58320139 145.15955233 42.27856445 141.56088257 C39.36367528 137.99508341 37.48370797 134.04737942 35.76467896 129.79957581 C34.72084932 127.34305397 33.33547773 125.16550276 31.875 122.9375 C29.65787018 119.25634152 27.7478058 115.49216389 25.875 111.625 C22.55661417 104.80528806 18.69873663 98.36383802 14.76196289 91.88623047 C8.98211443 82.36637462 3.48288551 72.6930276 -2 63 C-2.63663574 61.87754883 -2.63663574 61.87754883 -3.28613281 60.73242188 C-5.53115267 56.77357791 -7.76113591 52.80691477 -9.97412109 48.83007812 C-11.01811249 46.9676889 -12.08038944 45.11656027 -13.14453125 43.265625 C-13.8052137 42.09404658 -14.46539553 40.92218566 -15.125 39.75 C-15.70507812 38.73421875 -16.28515625 37.7184375 -16.8828125 36.671875 C-18.16258208 33.61116733 -18.03347692 33.03467034 -17 30 C-16.19525972 28.33723913 -15.34083125 26.69811212 -14.453125 25.078125 C-13.9375 24.13453125 -13.421875 23.1909375 -12.890625 22.21875 C-12.34921875 21.2390625 -11.8078125 20.259375 -11.25 19.25 C-10.46109375 17.80367187 -10.46109375 17.80367187 -9.65625 16.328125 C-6.60414753 10.76785912 -3.41841453 5.34285531 0 0 Z " fill="#52525B" transform="translate(249,149)"/>
</svg>

