<svg width="430" height="110" viewBox="0 0 430 110" fill="none" xmlns="http://www.w3.org/2000/svg">
<path d="M226.839 0.835421C228.042 0.836788 228.042 0.836788 229.269 0.838183C230.101 0.833898 230.933 0.829613 231.791 0.825198C233.56 0.819443 235.33 0.818962 237.099 0.82329C239.764 0.826407 242.427 0.803158 245.092 0.777636C258.641 0.726646 273.21 1.06403 283.777 10.7718C291.585 19.2855 291.779 28.0308 291.477 39.0687C290.939 47.2907 287.373 52.1614 281.437 57.5765C278.784 59.7085 275.934 61.4185 273 63.139C273.545 64.2785 274.09 65.418 274.652 66.5921C278.838 75.367 282.972 84.1651 287 93.014C287.385 93.8509 287.771 94.6878 288.168 95.5501C291.781 103.542 291.781 103.542 292 107.139C289.006 110.132 285.696 109.546 281.687 109.576C280.928 109.609 280.168 109.642 279.385 109.676C278.272 109.687 278.272 109.687 277.137 109.698C276.127 109.718 276.127 109.718 275.096 109.738C271.738 108.778 270.229 106.771 268 104.139C266.706 101.792 265.582 99.5587 264.519 97.1155C264.221 96.4511 263.922 95.7867 263.614 95.1022C262.987 93.7044 262.367 92.3042 261.751 90.9017C260.816 88.7719 259.864 86.6504 258.908 84.5296C258.298 83.1629 257.69 81.7957 257.082 80.428C256.802 79.8018 256.522 79.1755 256.233 78.5302C254.45 74.4517 253.138 70.4289 252 66.139C248.04 66.139 244.08 66.139 240 66.139C240.008 68.0396 240.008 68.0396 240.016 69.9786C240.034 74.6618 240.045 79.3451 240.055 84.0284C240.06 86.0586 240.067 88.0889 240.075 90.1192C240.087 93.0307 240.093 95.9422 240.098 98.8538C240.103 99.7673 240.108 100.681 240.113 101.622C240.113 103.795 240.062 105.967 240 108.139C238.06 110.078 235.188 109.272 232.611 109.276C231.77 109.272 230.929 109.268 230.062 109.264C229.225 109.268 228.388 109.272 227.525 109.276C226.724 109.274 225.923 109.273 225.098 109.272C224.36 109.271 223.623 109.27 222.863 109.268C221 109.139 221 109.139 219 108.139C219 87.679 219 67.219 219 46.139C222.383 44.4476 226.23 44.9594 229.953 44.928C231.788 44.9 233.622 44.8713 235.457 44.8421C238.351 44.8009 241.246 44.764 244.14 44.7376C246.932 44.7099 249.724 44.664 252.516 44.6155C253.805 44.6106 253.805 44.6106 255.12 44.6057C260.143 44.5034 263.638 43.9023 268 41.139C270.633 37.7873 270.289 34.2623 270 30.139C269.537 27.3126 269.537 27.3126 268 25.139C262.844 22.851 257.804 22.7311 252.262 22.5413C251.34 22.5021 250.419 22.4629 249.47 22.4225C246.542 22.299 243.615 22.1869 240.687 22.0765C237.742 21.9611 234.797 21.8432 231.852 21.7197C230.022 21.6434 228.193 21.572 226.363 21.5059C220.112 21.2509 220.112 21.2509 219 20.139C218.873 17.3148 218.815 14.526 218.812 11.7015C218.8 10.9119 218.788 10.1224 218.775 9.30889C218.77 7.25089 218.878 5.19334 219 3.13896C221.575 0.563846 223.328 0.880733 226.839 0.835421Z" fill="#52525B"/>
<path d="M415.25 6.88892C422.83 13.0904 426.413 19.1307 428.875 28.4514C429 31.1389 429 31.1389 427.941 32.7874C425.023 34.8192 422.574 34.4993 419.063 34.4514C417.224 34.4456 417.224 34.4456 415.348 34.4397C412.243 34.1607 410.5 33.9487 408 32.1389C406.965 29.8208 405.965 27.4872 405 25.1389C400.774 22.3214 396.756 21.727 391.805 22.467C388.705 23.3593 386.664 24.2065 384.762 26.8772C383.158 30.5167 382.972 32.8987 383.438 36.8889C385.31 40.7832 386.996 42.6793 391 44.1389C394.218 44.7345 397.44 45.1642 400.684 45.5959C410.196 47.1533 417.68 51.4557 423.535 59.1584C428.761 67.1268 429.918 74.7021 429 84.1389C428.082 87.4398 426.753 90.2045 425 93.1389C424.474 94.0767 424.474 94.0767 423.938 95.0334C418.966 102.958 411.26 106.473 402.481 108.791C399.939 109.147 398.396 109.006 396 108.139C393.958 106.097 394.769 102.06 394.75 99.2639C394.729 98.5304 394.709 97.797 394.688 97.0413C394.648 91.6443 394.648 91.6443 396.324 89.2366C402.58 85.1389 402.58 85.1389 406 85.1389C406.983 82.1906 407.134 80.2124 407.125 77.1389C407.128 76.2727 407.13 75.4064 407.133 74.5139C407.096 71.9888 407.096 71.9888 406 69.1389C402.872 67.0947 399.495 66.4734 395.875 65.7014C383.166 62.8486 373.817 60.0564 365.75 49.0764C361.401 41.7761 362.219 31.6047 363.391 23.4045C365.576 15.5045 371.516 9.33495 378.438 5.20142C391.155 -1.1244 402.973 0.278048 415.25 6.88892Z" fill="#52525B"/>
<path d="M175 40.1389C181.27 40.1389 187.54 40.1389 194 40.1389C195.389 42.9176 195.135 45.1919 195.145 48.301C195.152 49.5958 195.158 50.8905 195.165 52.2245C195.166 53.6439 195.167 55.0633 195.168 56.4827C195.171 57.9323 195.175 59.382 195.178 60.8317C195.184 63.8714 195.186 66.9112 195.185 69.9509C195.185 73.8518 195.199 77.7526 195.216 81.6534C195.227 84.6474 195.229 87.6413 195.229 90.6352C195.23 92.0738 195.234 93.5123 195.242 94.9509C195.252 96.9595 195.248 98.9682 195.243 100.977C195.244 102.121 195.246 103.265 195.247 104.444C195 107.139 195 107.139 193 109.139C190.091 109.284 187.28 109.325 184.375 109.264C183.573 109.255 182.771 109.246 181.945 109.237C179.963 109.213 177.982 109.177 176 109.139C174.42 104.94 173.751 101.477 173.757 96.9976C173.754 95.8064 173.751 94.6153 173.748 93.3881C173.755 92.1161 173.762 90.844 173.77 89.5334C173.77 88.2173 173.77 86.9011 173.771 85.5451C173.773 82.7688 173.781 79.9926 173.794 77.2163C173.811 73.6587 173.815 70.1012 173.814 66.5435C173.815 63.1443 173.823 59.7451 173.832 56.3459C173.833 55.0678 173.834 53.7897 173.835 52.4729C173.842 51.2912 173.848 50.1095 173.855 48.8921C173.859 47.851 173.862 46.8098 173.866 45.7371C174 43.1389 174 43.1389 175 40.1389Z" fill="#52525B"/>
<path d="M152 1.13892C173.12 1.13892 194.24 1.13892 216 1.13892C217.517 4.17321 217.144 7.31493 217.125 10.6389C217.129 11.3286 217.133 12.0182 217.137 12.7288C217.127 17.8856 217.127 17.8856 216 20.1389C200.235 20.9813 184.589 21.2242 168.813 20.7639C168.029 20.7425 167.246 20.7211 166.439 20.699C164.216 20.6361 161.993 20.5653 159.77 20.4905C158.487 20.4475 157.204 20.4044 155.882 20.3601C153 20.1389 153 20.1389 152 19.1389C151.736 16.4869 151.531 13.86 151.375 11.2014C151.324 10.4596 151.272 9.71771 151.219 8.95337C150.876 3.38767 150.876 3.38767 152 1.13892Z" fill="#52525B"/>
<path d="M307.045 85.9937C308.622 85.9841 308.622 85.9841 310.23 85.9744C311.37 85.9733 312.509 85.9721 313.684 85.971C314.85 85.9677 316.016 85.9643 317.218 85.9609C319.689 85.9558 322.159 85.9535 324.63 85.9537C328.418 85.9515 332.206 85.9333 335.994 85.9144C338.391 85.9114 340.787 85.9094 343.184 85.9085C344.89 85.8977 344.89 85.8977 346.631 85.8867C348.212 85.8913 348.212 85.8913 349.826 85.896C351.219 85.8939 351.219 85.8939 352.641 85.8917C355 86.139 355 86.139 358 88.139C358.221 91.0896 358.281 93.8226 358.187 96.764C358.167 97.9667 358.167 97.9667 358.146 99.1936C358.111 101.176 358.057 103.157 358 105.139C353.538 107.374 349.354 107.414 344.473 107.369C343.647 107.369 342.822 107.369 341.971 107.368C340.224 107.365 338.477 107.357 336.729 107.345C334.103 107.327 331.476 107.324 328.85 107.325C301.128 107.267 301.128 107.267 299 105.139C297.099 92.7892 297.098 92.7892 300 87.139C302.51 85.884 304.236 86.0052 307.045 85.9937Z" fill="#52525B"/>
<path d="M306.244 0.009552C307.339 0.00639984 308.433 0.00324768 309.561 0C311.341 0.00303634 311.341 0.00303634 313.156 0.00613403C314.37 0.00517731 315.583 0.00422058 316.833 0.00323486C319.402 0.00255336 321.971 0.00440556 324.54 0.00857544C328.484 0.0139241 332.427 0.00862939 336.371 0.00222778C338.862 0.00288857 341.353 0.00416974 343.844 0.00613403C345.03 0.0041098 346.217 0.00208557 347.439 0C348.534 0.00315216 349.628 0.00630432 350.756 0.009552C351.723 0.0103476 352.689 0.0111432 353.685 0.0119629C356 0.138947 356 0.138947 358 1.13895C358 7.07895 358 13.0189 358 19.1389C353.304 21.0174 350.189 21.4129 345.313 21.3264C344.53 21.3193 343.747 21.3121 342.94 21.3047C339.96 21.2674 336.98 21.205 334 21.1389C332.998 21.1174 332.998 21.1174 331.975 21.0954C326.608 20.9787 321.242 20.8438 315.875 20.7014C315.099 20.682 314.324 20.6625 313.524 20.6425C311.305 20.5853 309.086 20.5214 306.867 20.4554C305.569 20.4187 304.271 20.382 302.933 20.3443C300 20.1389 300 20.1389 299 19.1389C298.914 17.7963 298.893 16.4492 298.902 15.1038C298.906 14.2949 298.909 13.486 298.912 12.6526C298.921 11.8025 298.929 10.9523 298.938 10.0764C298.942 9.22244 298.947 8.36844 298.951 7.48856C298.963 5.37199 298.981 3.25546 299 1.13895C301.561 -0.141498 303.377 0.0119118 306.244 0.009552Z" fill="#52525B"/>
<path d="M302.284 44.0187C303.295 44.0209 304.305 44.0231 305.346 44.0254C307.058 44.0255 307.058 44.0255 308.804 44.0256C310.045 44.0308 311.287 44.036 312.566 44.0413C314.462 44.0434 314.462 44.0434 316.396 44.0456C319.761 44.0502 323.126 44.0592 326.492 44.0703C329.923 44.0805 333.355 44.0851 336.787 44.0901C343.525 44.1012 350.262 44.1179 357 44.1389C358.58 47.2996 358.226 50.6717 358.25 54.1389C358.271 54.8763 358.291 55.6136 358.312 56.3733C358.328 58.5139 358.328 58.5139 358 62.1389C354.617 64.394 353.49 64.3859 349.531 64.3694C348.415 64.3682 347.298 64.367 346.148 64.3657C344.944 64.3528 343.74 64.3398 342.5 64.3264C341.267 64.3193 340.035 64.3121 338.764 64.3047C329.777 64.2277 320.795 64.01 311.812 63.7014C310.059 63.6428 310.059 63.6428 308.27 63.583C307.197 63.5409 306.125 63.4988 305.02 63.4553C304.072 63.4187 303.124 63.382 302.148 63.3443C300 63.1389 300 63.1389 299 62.1389C298.9 59.2956 298.861 56.482 298.875 53.6389C298.871 52.841 298.867 52.0431 298.863 51.221C298.875 44.1981 298.875 44.1981 302.284 44.0187Z" fill="#52525B"/>
<path d="M302.246 44.0187C303.239 44.0209 304.231 44.0231 305.254 44.0254C306.375 44.0255 307.496 44.0256 308.651 44.0256C310.481 44.0334 310.481 44.0334 312.348 44.0413C314.21 44.0434 314.21 44.0434 316.11 44.0456C319.416 44.0502 322.722 44.0592 326.028 44.0703C329.4 44.0805 332.771 44.0851 336.143 44.0901C342.762 44.1012 349.381 44.1179 356 44.1389C355.67 44.7989 355.34 45.4589 355 46.1389C337.18 46.1389 319.36 46.1389 301 46.1389C301 47.1289 301 48.1189 301 49.1389C301.66 49.4689 302.32 49.7989 303 50.1389C302.34 50.1389 301.68 50.1389 301 50.1389C300.67 53.1089 300.34 56.0789 300 59.1389C299.67 59.1389 299.34 59.1389 299 59.1389C298.973 56.8265 298.954 54.514 298.938 52.2014C298.926 50.9137 298.914 49.6259 298.902 48.2991C299.029 44.1909 299.029 44.1909 302.246 44.0187Z" fill="#52525B"/>
<path d="M220 6.13892C220.33 6.13892 220.66 6.13892 221 6.13892C221.33 10.4289 221.66 14.7189 222 19.1389C225.96 19.4689 229.92 19.7989 234 20.1389C234 20.4689 234 20.7989 234 21.1389C229.38 21.1389 224.76 21.1389 220 21.1389C218.528 18.195 219.151 15.765 219.438 12.5139C219.539 11.3254 219.641 10.1369 219.746 8.91235C219.83 7.99712 219.914 7.08188 220 6.13892Z" fill="#52525B"/>
<path d="M376 7.13892C376.33 8.12892 376.66 9.11892 377 10.1389C374.688 12.6389 374.688 12.6389 372 15.1389C371.01 15.1389 370.02 15.1389 369 15.1389C370.491 11.3437 372.757 9.52849 376 7.13892Z" fill="#52525B"/>
<path d="M152 1.13892C153.65 1.13892 155.3 1.13892 157 1.13892C157.33 2.12892 157.66 3.11892 158 4.13892C156.02 4.79892 154.04 5.45892 152 6.13892C151.67 5.14892 151.34 4.15892 151 3.13892C151.33 2.47892 151.66 1.81892 152 1.13892Z" fill="#52525B"/>
<path d="M52.0021 88.9229C52.5603 88.9146 53.1184 88.9062 53.6935 88.8977C54.3111 88.8913 54.9288 88.8849 55.5651 88.8783C56.2116 88.8698 56.858 88.8612 57.5241 88.8525C63.4923 88.7786 69.461 88.7367 75.4297 88.7056C79.8424 88.6821 84.2542 88.6415 88.6665 88.5783C91.768 88.5355 94.8693 88.5127 97.9712 88.5048C99.8242 88.4994 101.676 88.4851 103.529 88.4488C105.598 88.4087 107.665 88.4103 109.735 88.4155C110.653 88.3883 110.653 88.3883 111.59 88.3606C113.299 88.3848 114.617 88.4528 116.225 89.0217C117.721 90.6161 118.586 92.3144 119.458 94.2879C119.758 94.8086 120.058 95.3293 120.367 95.8658C120.6 96.29 120.834 96.7143 121.074 97.1515C121.901 98.6519 122.73 100.151 123.574 101.642C123.86 102.148 124.146 102.654 124.441 103.175C124.699 103.63 124.958 104.084 125.224 104.553C125.908 105.846 126.471 107.146 127 108.507C126.461 109.033 126.461 109.033 125.024 109.098C124.053 109.098 124.053 109.098 123.063 109.097C122.524 109.097 122.524 109.097 121.975 109.098C120.763 109.099 119.551 109.096 118.339 109.093C117.474 109.093 116.609 109.093 115.744 109.093C113.387 109.094 111.031 109.091 108.675 109.087C106.215 109.084 103.755 109.083 101.296 109.083C96.6345 109.081 91.9733 109.077 87.3122 109.071C82.0071 109.065 76.7019 109.063 71.3968 109.06C60.4807 109.054 49.5645 109.045 38.6484 109.033C38.5887 106.896 38.8024 105.842 39.9952 104.031C40.289 103.575 40.5827 103.119 40.8854 102.65C41.2139 102.15 41.5424 101.65 41.8808 101.134C42.6127 99.9835 43.3421 98.8315 44.0694 97.6781C44.4319 97.1045 44.7944 96.5308 45.1679 95.9398C46.296 94.1178 47.3614 92.2709 48.3939 90.3958C49.358 88.7295 50.089 88.9478 52.0021 88.9229Z" fill="#52525B"/>
<path d="M44.9737 31.5574C45.6852 31.5574 46.3968 31.5574 47.1299 31.5574C51.6866 39.6031 51.6866 39.6031 53.8008 43.4142C54.0385 43.8417 54.2761 44.2691 54.521 44.7095C54.7503 45.1577 54.9796 45.6059 55.2159 46.0677C55.5522 46.6628 55.8885 47.2579 56.2351 47.871C56.8331 49.8297 56.8331 49.8297 56.1382 51.7191C55.7325 52.3966 55.3116 53.0652 54.879 53.726C54.4177 54.4823 53.9565 55.2388 53.4955 55.9953C53.2481 56.3903 53.0006 56.7853 52.7456 57.1922C51.7023 58.8801 50.7203 60.6005 49.7347 62.3224C47.8262 65.654 45.8747 68.9508 43.8282 72.1998C42.2457 74.7324 40.8249 77.3125 39.4483 79.9588C36.9109 84.83 34.0752 89.5025 31.2168 94.1913C29.7496 96.6173 28.3219 99.0668 26.9005 101.52C26.4976 102.209 26.0825 102.891 25.6556 103.565C24.984 104.657 24.984 104.657 24.5211 105.972C23.778 107.592 23.2396 108.416 21.794 109.483C18.4129 110.308 14.7936 109.935 11.3496 109.786C10.3775 109.761 9.40539 109.739 8.43321 109.72C6.05722 109.666 3.68403 109.583 1.30957 109.483C1.13168 109.129 0.953789 108.774 0.770508 108.409C1.23587 107.332 1.23587 107.332 2.01709 105.957C2.4705 105.156 2.4705 105.156 2.93308 104.34C3.28677 103.732 3.64047 103.124 4.00489 102.497C4.19641 102.167 4.38794 101.838 4.58527 101.498C6.68594 97.8923 8.81558 94.3042 10.9917 90.743C13.9402 85.9082 16.7764 81.0581 19.3355 76.0051C20.7528 73.2358 22.3566 70.637 24.0483 68.026C25.6752 65.4758 27.1839 62.8585 28.7007 60.2422C29.361 59.1078 30.0215 57.9735 30.6822 56.8392C31.1634 56.0125 31.1634 56.0125 31.6542 55.169C32.7156 53.3512 33.7873 51.5398 34.8618 49.7297C37.0517 46.0401 39.1749 42.3264 41.2002 38.5438C41.5446 37.9062 41.8893 37.2687 42.2342 36.6314C43.1488 34.9409 44.0617 33.2494 44.9737 31.5574Z" fill="#52525B"/>
<path d="M63.5881 0C65.9202 0.779937 66.4481 2.53916 67.5386 4.60716C68.8765 7.07485 70.1991 9.50881 71.7929 11.8228C74.0044 15.0508 75.757 18.5291 77.5665 21.9941C79.9422 26.5277 82.4827 30.8906 85.1973 35.2312C86.8558 37.9393 88.4579 40.6634 89.958 43.4632C91.2795 45.9201 92.6758 48.3216 94.111 50.7127C94.3207 51.062 94.5304 51.4114 94.7465 51.7713C95.645 53.2643 96.5482 54.7539 97.46 56.2387C98.8385 58.4967 100.09 60.7589 101.235 63.1452C102.931 66.6397 104.955 69.9063 107.019 73.1906C107.27 73.5941 107.522 73.9976 107.781 74.4133C108.01 74.775 108.238 75.1366 108.473 75.5092C108.967 76.4247 108.967 76.4247 108.967 77.5087C105.979 77.7109 102.995 77.8577 100.002 77.9553C98.9864 77.996 97.9713 78.0514 96.9574 78.1221C88.7537 78.6793 88.7537 78.6793 86.4282 76.7287C84.8535 74.796 83.8379 72.6562 82.9092 70.3539C82.3453 69.0224 81.5969 67.8421 80.8079 66.6345C79.6102 64.6392 78.5783 62.599 77.5665 60.5029C75.7739 56.8065 73.6897 53.3151 71.563 49.8041C68.4405 44.6442 65.4697 39.401 62.5077 34.1472C62.1638 33.5388 62.1638 33.5388 61.8129 32.9181C60.6001 30.7724 59.3954 28.6224 58.1998 26.4668C57.6358 25.4574 57.062 24.454 56.4871 23.4508C56.1302 22.8158 55.7735 22.1806 55.4172 21.5453C55.1038 20.9947 54.7904 20.4441 54.4676 19.8769C53.7762 18.2179 53.846 17.9054 54.4043 16.2606C54.839 15.3593 55.3006 14.4709 55.7802 13.5928C56.0587 13.0814 56.3373 12.5699 56.6243 12.043C56.9167 11.512 57.2092 10.981 57.5106 10.4339C57.9368 9.64993 57.9368 9.64993 58.3716 8.85016C60.0204 5.83639 61.7414 2.89593 63.5881 0Z" fill="#52525B"/>
</svg>
