<?xml version="1.0" encoding="UTF-8"?>
<svg version="1.1" xmlns="http://www.w3.org/2000/svg" width="500" height="500">
<path d="M0 0 C1.20295967 0.00136711 1.20295967 0.00136711 2.43022156 0.00276184 C3.26220566 -0.00152328 4.09418976 -0.00580841 4.9513855 -0.01022339 C6.72093294 -0.01597776 8.49050404 -0.01645884 10.26005554 -0.01213074 C12.9246324 -0.00901371 15.5880513 -0.03226314 18.25248718 -0.05778503 C31.80150378 -0.10877523 46.37099163 0.22861112 56.93803406 9.93635559 C64.74550533 18.45012622 64.93969829 27.19541985 64.63725281 38.23323059 C64.09992154 46.45529961 60.53393576 51.32597706 54.59819031 56.74104309 C51.94426064 58.8730969 49.09509085 60.58303132 46.16069031 62.30354309 C46.70596375 63.44307434 47.25123718 64.58260559 47.81303406 65.75666809 C51.99922439 74.53156706 56.13301534 83.32965164 60.16069031 92.17854309 C60.54603943 93.01546692 60.93138855 93.85239075 61.32841492 94.7146759 C64.94183417 102.70609534 64.94183417 102.70609534 65.16069031 106.30354309 C62.16722916 109.29700424 58.85672992 108.7109037 54.84819031 108.74104309 C54.08828796 108.77391418 53.32838562 108.80678528 52.54545593 108.84065247 C51.43267273 108.85128723 51.43267273 108.85128723 50.29740906 108.86213684 C49.28746887 108.88231873 49.28746887 108.88231873 48.25712585 108.90290833 C44.8989249 107.94280779 43.38973562 105.93603853 41.16069031 103.30354309 C39.86632805 100.95637271 38.7428451 98.7232517 37.68022156 96.28010559 C37.38129501 95.61570465 37.08236847 94.95130371 36.77438354 94.26676941 C36.14816339 92.86899739 35.52741324 91.46876302 34.91191101 90.0662384 C33.97666034 87.93644519 33.02437571 85.81495055 32.06889343 83.69416809 C31.45915353 82.32743338 30.85039667 80.96025959 30.24272156 79.59260559 C29.96249649 78.9663327 29.68227142 78.34005981 29.39355469 77.69480896 C27.6108178 73.61629976 26.29837158 69.5934994 25.16069031 65.30354309 C21.20069031 65.30354309 17.24069031 65.30354309 13.16069031 65.30354309 C13.16854553 67.2041449 13.16854553 67.2041449 13.17655945 69.1431427 C13.19460545 73.8264038 13.20612084 78.5096618 13.21562195 83.19294739 C13.22066309 85.22322607 13.22749587 87.25350111 13.23612976 89.2837677 C13.24820498 92.19531656 13.25392065 95.10681759 13.25834656 98.01838684 C13.26350784 98.93192429 13.26866913 99.84546173 13.27398682 100.78668213 C13.27418199 102.95929736 13.22280835 105.13181605 13.16069031 107.30354309 C11.22117891 109.24305449 8.34861911 108.43610938 5.77201843 108.44026184 C4.93090515 108.43639465 4.08979187 108.43252747 3.22319031 108.42854309 C2.38594421 108.43241028 1.54869812 108.43627747 0.68608093 108.44026184 C-0.11507141 108.43897278 -0.91622375 108.43768372 -1.74165344 108.43635559 C-2.47891663 108.43522766 -3.21617981 108.43409973 -3.9757843 108.43293762 C-5.83930969 108.30354309 -5.83930969 108.30354309 -7.83930969 107.30354309 C-7.83930969 86.84354309 -7.83930969 66.38354309 -7.83930969 45.30354309 C-4.45657891 43.6121777 -0.60938805 44.1239355 3.11381531 44.09260559 C4.94845951 44.06452831 6.78309481 44.03586379 8.61772156 44.00666809 C11.51208668 43.96546716 14.40628702 43.92858326 17.30082703 43.9021759 C20.09300724 43.87448802 22.88442925 43.82860697 25.67631531 43.78010559 C26.96569 43.77522629 26.96569 43.77522629 28.28111267 43.77024841 C33.30370115 43.66802182 36.79912678 43.0668917 41.16069031 40.30354309 C43.79412065 36.95190447 43.45004474 33.42684382 43.16069031 29.30354309 C42.69781509 26.47721384 42.69781509 26.47721384 41.16069031 24.30354309 C36.00507268 22.01560122 30.96475416 21.8956532 25.42240906 21.70588684 C24.50103653 21.66669632 23.579664 21.6275058 22.63037109 21.58712769 C19.70324476 21.46357395 16.77583826 21.35148859 13.84819031 21.24104309 C10.90278017 21.12564501 7.95753317 21.00774396 5.01245117 20.88424683 C3.18305488 20.80793697 1.35344542 20.73655325 -0.47634888 20.67047119 C-6.72739576 20.41545702 -6.72739576 20.41545702 -7.83930969 19.30354309 C-7.9659406 16.47937927 -8.02451517 13.69059516 -8.02680969 10.86604309 C-8.03905579 10.07649231 -8.05130188 9.28694153 -8.06391907 8.47346497 C-8.06918248 6.41546875 -7.96137255 4.357923 -7.83930969 2.30354309 C-5.26419104 -0.27157556 -3.5115343 0.04531213 0 0 Z " fill="#52525B" transform="translate(176.8393096923828,206.6964569091797)"/>
<path d="M0 0 C7.57953926 6.20144122 11.16293468 12.24182413 13.625 21.5625 C13.75 24.25 13.75 24.25 12.69140625 25.8984375 C9.77289666 27.93023693 7.32357877 27.61039509 3.8125 27.5625 C1.97365234 27.55669922 1.97365234 27.55669922 0.09765625 27.55078125 C-3.00712428 27.27182197 -4.75044847 27.05981679 -7.25 25.25 C-8.28485877 22.93191636 -9.2855414 20.59824702 -10.25 18.25 C-14.47629837 15.43246775 -18.49429969 14.83811597 -23.4453125 15.578125 C-26.54533428 16.47038219 -28.58576083 17.31755069 -30.48828125 19.98828125 C-32.09247989 23.62776274 -32.27802176 26.00981346 -31.8125 30 C-29.9402514 33.89427709 -28.25449093 35.79041919 -24.25 37.25 C-21.03218427 37.84557442 -17.81005685 38.27528254 -14.56640625 38.70703125 C-5.05411954 40.2644021 2.4299121 44.56683094 8.28515625 52.26953125 C13.51105091 60.23787791 14.66762682 67.8131711 13.75 77.25 C12.83169786 80.5509239 11.50255864 83.31561728 9.75 86.25 C9.2240625 87.18779297 9.2240625 87.18779297 8.6875 88.14453125 C3.71554448 96.06858536 -3.9898623 99.58390303 -12.76953125 101.90234375 C-15.31069386 102.2585067 -16.85402353 102.1168589 -19.25 101.25 C-21.29225211 99.20774789 -20.48055064 95.17084523 -20.5 92.375 C-20.520625 91.64152344 -20.54125 90.90804687 -20.5625 90.15234375 C-20.60182185 84.75541959 -20.60182185 84.75541959 -18.92578125 82.34765625 C-12.66992883 78.25 -12.66992883 78.25 -9.25 78.25 C-8.26724412 75.30173237 -8.11585275 73.32347496 -8.125 70.25 C-8.12242187 69.38375 -8.11984375 68.5175 -8.1171875 67.625 C-8.15405795 65.09988305 -8.15405795 65.09988305 -9.25 62.25 C-12.37814577 60.20579312 -15.75511879 59.58445057 -19.375 58.8125 C-32.08411602 55.95972424 -41.4330363 53.16753392 -49.5 42.1875 C-53.84912217 34.88718779 -53.03082579 24.71578051 -51.859375 16.515625 C-49.67424831 8.61555159 -43.73404575 2.44603257 -36.8125 -1.6875 C-24.09541908 -8.0133207 -12.27732785 -6.61086884 0 0 Z " fill="#52525B" transform="translate(365.25,212.75)"/>
<path d="M0 0 C6.27 0 12.54 0 19 0 C20.38935736 2.77871471 20.13490628 5.05297778 20.14526367 8.16210938 C20.15164352 9.45685181 20.15802338 10.75159424 20.16459656 12.08557129 C20.166125 13.50496381 20.16723908 14.92435684 20.16796875 16.34375 C20.17118059 17.79341668 20.1745446 19.24308303 20.17805481 20.69274902 C20.18404668 23.7325109 20.1858946 26.77224435 20.18530273 29.81201172 C20.185201 33.71292227 20.19886475 37.61365127 20.21607494 41.51451874 C20.22717519 44.50845177 20.22922257 47.5023406 20.22869301 50.49629211 C20.22987567 51.93484626 20.2343134 53.37340146 20.24202538 54.81193542 C20.25178688 56.82056346 20.24769296 58.82924454 20.24291992 60.83789062 C20.24434494 61.98213501 20.24576996 63.12637939 20.24723816 64.30529785 C20 67 20 67 18 69 C15.0906442 69.14517744 12.280054 69.18630796 9.375 69.125 C8.57320312 69.11597656 7.77140625 69.10695313 6.9453125 69.09765625 C4.96341477 69.07406223 2.98167019 69.03819065 1 69 C-0.58052486 64.80133978 -1.2490364 61.33765171 -1.24291992 56.85864258 C-1.24599655 55.66753372 -1.24907318 54.47642487 -1.25224304 53.2492218 C-1.24505753 51.97717392 -1.23787201 50.70512604 -1.23046875 49.39453125 C-1.23001053 48.07837326 -1.22955231 46.76221527 -1.2290802 45.40617371 C-1.22752151 42.62985907 -1.21927679 39.85367451 -1.20581055 37.07739258 C-1.18877179 33.51976202 -1.184998 29.96227341 -1.18575573 26.40460682 C-1.18541859 23.00539595 -1.17658369 19.60623164 -1.16796875 16.20703125 C-1.16685593 14.92891068 -1.1657431 13.6507901 -1.16459656 12.3339386 C-1.15821671 11.15228622 -1.15183685 9.97063385 -1.14526367 8.75317383 C-1.14145187 7.71203934 -1.13764008 6.67090485 -1.13371277 5.59822083 C-1 3 -1 3 0 0 Z " fill="#52525B" transform="translate(125,246)"/>
<path d="M0 0 C21.12 0 42.24 0 64 0 C65.51714839 3.03429677 65.14363916 6.17601667 65.125 9.5 C65.12886719 10.18964844 65.13273437 10.87929687 65.13671875 11.58984375 C65.12666646 16.74666707 65.12666646 16.74666707 64 19 C48.23498103 19.84240559 32.58849469 20.08532049 16.8125 19.625 C16.02926361 19.60357941 15.24602722 19.58215881 14.4390564 19.56008911 C12.2156105 19.49720301 9.9926061 19.42633618 7.76953125 19.3515625 C6.48667236 19.30854004 5.20381348 19.26551758 3.88208008 19.22119141 C1 19 1 19 0 18 C-0.26431926 15.34799677 -0.46874867 12.72107035 -0.625 10.0625 C-0.6765625 9.32064453 -0.728125 8.57878906 -0.78125 7.81445312 C-1.12437576 2.24875151 -1.12437576 2.24875151 0 0 Z " fill="#52525B" transform="translate(102,207)"/>
<path d="M0 0 C1.57689857 -0.00956978 1.57689857 -0.00956978 3.18565369 -0.01933289 C4.32523026 -0.02044571 5.46480682 -0.02155853 6.63891602 -0.02270508 C7.80536148 -0.02603348 8.97180695 -0.02936188 10.17359924 -0.03279114 C12.64421188 -0.03786117 15.11483138 -0.04019944 17.58544922 -0.04003906 C21.37356805 -0.04222522 25.16139564 -0.0603795 28.94946289 -0.0793457 C31.34594627 -0.08227961 33.74243103 -0.08426442 36.13891602 -0.08520508 C37.84524452 -0.09598335 37.84524452 -0.09598335 39.58604431 -0.10697937 C41.16767113 -0.10236443 41.16767113 -0.10236443 42.78125 -0.09765625 C44.17451759 -0.09979378 44.17451759 -0.09979378 45.59593201 -0.10197449 C47.95532227 0.14526367 47.95532227 0.14526367 50.95532227 2.14526367 C51.17617866 5.09590515 51.23593216 7.82894598 51.14282227 10.77026367 C51.12251953 11.97295898 51.12251953 11.97295898 51.10180664 13.19995117 C51.06641278 15.18200745 51.0126046 17.16371918 50.95532227 19.14526367 C46.49373141 21.380766 42.30948819 21.42050943 37.42797852 21.37573242 C36.60261093 21.3752742 35.77724335 21.37481598 34.92686462 21.37434387 C33.17941857 21.37132825 31.43197505 21.3634626 29.68457031 21.35107422 C27.05792292 21.33303901 24.43163398 21.33056337 21.80493164 21.33081055 C-5.91657967 21.27336174 -5.91657967 21.27336174 -8.04467773 19.14526367 C-9.9461261 6.79545259 -9.9461261 6.79545259 -7.04467773 1.14526367 C-4.53478776 -0.10968131 -2.80874501 0.01153642 0 0 Z " fill="#52525B" transform="translate(257.044677734375,291.854736328125)"/>
<path d="M0 0 C1.09453491 -0.00315216 2.18906982 -0.00630432 3.31677246 -0.009552 C5.09646423 -0.00651566 5.09646423 -0.00651566 6.91210938 -0.00341797 C8.1253186 -0.00437469 9.33852783 -0.00533142 10.58850098 -0.00631714 C13.15747123 -0.00699864 15.7264432 -0.00514644 18.29541016 -0.00097656 C22.23929696 0.00437207 26.18306988 -0.00092261 30.12695312 -0.00732422 C32.61783879 -0.00666343 35.10872439 -0.00538226 37.59960938 -0.00341797 C38.78607056 -0.0054422 39.97253174 -0.00746643 41.19494629 -0.009552 C42.2894812 -0.00639984 43.38401611 -0.00324768 44.51171875 0 C45.47831421 0.00079559 46.44490967 0.00159119 47.4407959 0.00241089 C49.75585938 0.12939453 49.75585938 0.12939453 51.75585938 1.12939453 C51.75585938 7.06939453 51.75585938 13.00939453 51.75585938 19.12939453 C47.05981267 21.00781321 43.94518102 21.40338586 39.06835938 21.31689453 C38.28541504 21.30972412 37.5024707 21.30255371 36.69580078 21.29516602 C33.7152601 21.25783321 30.73590683 21.19549381 27.75585938 21.12939453 C26.75344208 21.10782288 26.75344208 21.10782288 25.73077393 21.08581543 C20.36372197 20.96916987 14.99728575 20.83421022 9.63085938 20.69189453 C8.8551358 20.67242767 8.07941223 20.65296082 7.28018188 20.63290405 C5.06095243 20.57577805 2.84202625 20.51186048 0.62304688 20.44580078 C-0.6752002 20.40914307 -1.97344727 20.37248535 -3.31103516 20.3347168 C-6.24414062 20.12939453 -6.24414062 20.12939453 -7.24414062 19.12939453 C-7.33045937 17.7867204 -7.35120536 16.43965131 -7.34179688 15.09423828 C-7.33857422 14.28535156 -7.33535156 13.47646484 -7.33203125 12.64306641 C-7.32365234 11.79292969 -7.31527344 10.94279297 -7.30664062 10.06689453 C-7.30212891 9.21289062 -7.29761719 8.35888672 -7.29296875 7.47900391 C-7.28114436 5.3624379 -7.26320831 3.24590768 -7.24414062 1.12939453 C-4.68325065 -0.15105045 -2.86703413 0.00235982 0 0 Z " fill="#52525B" transform="translate(256.244140625,205.87060546875)"/>
<path d="M0 0 C1.01037827 0.00222061 2.02075653 0.00444122 3.06175232 0.00672913 C4.77341331 0.00684242 4.77341331 0.00684242 6.51965332 0.00695801 C7.76129745 0.01211929 9.00294159 0.01728058 10.2822113 0.02259827 C12.17785072 0.02472069 12.17785072 0.02472069 14.11178589 0.02688599 C17.47705394 0.0315487 20.84225495 0.04053972 24.20750427 0.05158997 C27.63930175 0.06180606 31.07110614 0.06638403 34.50291443 0.07142639 C41.2405633 0.08248071 47.9781803 0.09923742 54.71580505 0.12025452 C56.2961628 3.28097001 55.94155852 6.65299956 55.96580505 10.12025452 C55.98643005 10.85759827 56.00705505 11.59494202 56.02830505 12.35462952 C56.04393005 14.49525452 56.04393005 14.49525452 55.71580505 18.12025452 C52.33313582 20.37536734 51.20586996 20.36722912 47.24705505 20.35072327 C46.13048523 20.34951477 45.01391541 20.34830627 43.86351013 20.34706116 C42.65976746 20.33408997 41.45602478 20.32111877 40.21580505 20.30775452 C38.98305847 20.30058411 37.75031189 20.2934137 36.48020935 20.286026 C27.49268927 20.20901456 18.51069838 19.99134241 9.52830505 19.68275452 C7.77453552 19.62414246 7.77453552 19.62414246 5.9853363 19.56434631 C4.9128363 19.52221008 3.8403363 19.48007385 2.7353363 19.43666077 C1.78763367 19.40000305 0.83993103 19.36334534 -0.13648987 19.32557678 C-2.28419495 19.12025452 -2.28419495 19.12025452 -3.28419495 18.12025452 C-3.38406469 15.27690404 -3.42297376 12.46328289 -3.40919495 9.62025452 C-3.41306213 8.82232483 -3.41692932 8.02439514 -3.4209137 7.20228577 C-3.40899041 0.17947089 -3.40899041 0.17947089 0 0 Z " fill="#52525B" transform="translate(252.28419494628906,249.87974548339844)"/>
<path d="M0 0 C0.99261337 0.00222061 1.98522675 0.00444122 3.00791931 0.00672913 C4.12900589 0.00680466 5.25009247 0.00688019 6.40515137 0.00695801 C8.2348069 0.01469994 8.2348069 0.01469994 10.10142517 0.02259827 C11.96377052 0.02472069 11.96377052 0.02472069 13.86373901 0.02688599 C17.16982383 0.03154861 20.47584039 0.04053955 23.78190613 0.05158997 C27.15338042 0.06180625 30.52486175 0.06638407 33.89634705 0.07142639 C40.51550667 0.08248056 47.13463385 0.09923715 53.75376892 0.12025452 C53.42376892 0.78025452 53.09376892 1.44025452 52.75376892 2.12025452 C34.93376892 2.12025452 17.11376892 2.12025452 -1.24623108 2.12025452 C-1.24623108 3.11025452 -1.24623108 4.10025452 -1.24623108 5.12025452 C-0.58623108 5.45025452 0.07376892 5.78025452 0.75376892 6.12025452 C0.09376892 6.12025452 -0.56623108 6.12025452 -1.24623108 6.12025452 C-1.57623108 9.09025452 -1.90623108 12.06025452 -2.24623108 15.12025452 C-2.57623108 15.12025452 -2.90623108 15.12025452 -3.24623108 15.12025452 C-3.2730852 12.8078166 -3.29255949 10.49529182 -3.30873108 8.18275452 C-3.32033264 6.89498108 -3.3319342 5.60720764 -3.34388733 4.28041077 C-3.21693465 0.17222223 -3.21693465 0.17222223 0 0 Z " fill="#52525B" transform="translate(252.24623107910156,249.87974548339844)"/>
<path d="M0 0 C0.33 0 0.66 0 1 0 C1.33 4.29 1.66 8.58 2 13 C5.96 13.33 9.92 13.66 14 14 C14 14.33 14 14.66 14 15 C9.38 15 4.76 15 0 15 C-1.47193312 12.05613377 -0.84936173 9.62609964 -0.5625 6.375 C-0.46066406 5.18648437 -0.35882813 3.99796875 -0.25390625 2.7734375 C-0.17011719 1.85820312 -0.08632812 0.94296875 0 0 Z " fill="#52525B" transform="translate(170,212)"/>
<path d="M0 0 C0.33 0.99 0.66 1.98 1 3 C-1.3125 5.5 -1.3125 5.5 -4 8 C-4.99 8 -5.98 8 -7 8 C-5.50902342 4.2047869 -3.24299151 2.38957269 0 0 Z " fill="#52525B" transform="translate(326,213)"/>
<path d="M0 0 C1.65 0 3.3 0 5 0 C5.33 0.99 5.66 1.98 6 3 C4.02 3.66 2.04 4.32 0 5 C-0.33 4.01 -0.66 3.02 -1 2 C-0.67 1.34 -0.34 0.68 0 0 Z " fill="#52525B" transform="translate(102,207)"/>
</svg>
